<?xml version="1.0" encoding="utf-8"?>
<!-- Generator: Adobe Illustrator 19.1.0, SVG Export Plug-In . SVG Version: 6.00 Build 0)  -->
<svg version="1.1" id="Layer_1" xmlns="http://www.w3.org/2000/svg" xmlns:xlink="http://www.w3.org/1999/xlink" x="0px" y="0px"
	 viewBox="42 -41.1 211.1 211.1" style="enable-background:new 42 -41.1 211.1 211.1;" xml:space="preserve">
<style type="text/css">
	.st0{fill:#FFFFFF;}
	.st1{fill:#231F20;}
</style>
<g>
	<g>
		<path class="st0" d="M147.6,164.1c-55,0-99.7-44.7-99.7-99.7s44.7-99.6,99.7-99.6s99.7,44.7,99.7,99.7S202.5,164.1,147.6,164.1z"
			/>
	</g>
	<g>
		<path class="st1" d="M147.6-29.3c51.7,0,93.8,42.1,93.8,93.8s-42.1,93.8-93.8,93.8s-93.8-42.1-93.8-93.8S95.9-29.3,147.6-29.3
			 M147.6-41.1C89.3-41.1,42,6.2,42,64.5s47.3,105.6,105.6,105.6s105.6-47.3,105.6-105.6C253.1,6.2,205.9-41.1,147.6-41.1
			L147.6-41.1z"/>
	</g>
</g>
<g>
	<circle class="st1" cx="147.6" cy="6.9" r="19.3"/>
</g>
</svg>
