<?xml version="1.0" encoding="utf-8"?>
<!-- Generator: Adobe Illustrator 19.1.0, SVG Export Plug-In . SVG Version: 6.00 Build 0)  -->
<svg version="1.1" id="Layer_1" xmlns="http://www.w3.org/2000/svg" xmlns:xlink="http://www.w3.org/1999/xlink" x="0px" y="0px"
	 viewBox="0 0 211.1 211.1" style="enable-background:new 0 0 211.1 211.1;" xml:space="preserve">
<style type="text/css">
	.st0{fill:#FFFFFF;}
	.st1{fill:#00ADEE;}
	.st2{fill:#231F20;}
	.st3{opacity:0.12;}
	.st4{opacity:0.7;}
	.st5{opacity:9.000000e-02;}
	.st6{fill:#00B26D;}
</style>
<g>
	<g>
		<g>
			<path class="st0" d="M105.6,205.2c-55,0-99.7-44.7-99.7-99.7S50.6,5.9,105.6,5.9s99.7,44.7,99.7,99.7S160.5,205.2,105.6,205.2z"
				/>
		</g>
		<g>
			<path class="st2" d="M105.6,11.8c51.7,0,93.8,42.1,93.8,93.8s-42.1,93.8-93.8,93.8s-93.8-42.1-93.8-93.8S53.9,11.8,105.6,11.8
				 M105.6,0C47.3,0,0,47.3,0,105.6c0,58.3,47.3,105.6,105.6,105.6c58.3,0,105.6-47.3,105.6-105.6C211.1,47.3,163.9,0,105.6,0
				L105.6,0z"/>
		</g>
	</g>
	<g>
		<circle class="st2" cx="116.4" cy="153" r="19.3"/>
	</g>
</g>
</svg>
