<?xml version="1.0" encoding="UTF-8" standalone="no"?>
<svg width="60px" height="60px" viewBox="0 0 60 60" version="1.1" xmlns="http://www.w3.org/2000/svg" xmlns:xlink="http://www.w3.org/1999/xlink" xmlns:sketch="http://www.bohemiancoding.com/sketch/ns">
    <!-- Generator: Sketch 3.4.2 (15857) - http://www.bohemiancoding.com/sketch -->
    <title>instagram-logo</title>
    <desc>Created with Sketch.</desc>
    <defs></defs>
    <g id="Page-1" stroke="none" stroke-width="1" fill="none" fill-rule="evenodd" sketch:type="MSPage">
        <g id="Desktop-HD" sketch:type="MSArtboardGroup" transform="translate(-608.000000, -482.000000)" fill="#FFFFFF">
            <g id="instagram-logo" sketch:type="MSLayerGroup" transform="translate(608.000000, 482.000000)">
                <path d="M53.0775,60 L6.9225,60 C3.0975,60 0,56.89875 0,53.07375 L0,6.9225 C0,3.0975 3.0975,0 6.9225,0 L53.0775,0 C56.9025,0 60,3.0975 60,6.9225 L60,53.07375 C60,56.89875 56.9025,60 53.0775,60 L53.0775,60 Z M30,18.46125 C23.625,18.46125 18.46125,23.625 18.46125,30 C18.46125,36.375 23.625,41.53875 30,41.53875 C36.375,41.53875 41.53875,36.375 41.53875,30 C41.53875,23.625 36.375,18.46125 30,18.46125 L30,18.46125 Z M53.0775,9.22875 C53.0775,7.95375 52.04625,6.92625 50.7675,6.92625 L43.845,6.92625 C42.57,6.92625 41.53875,7.9575 41.53875,9.2325 L41.53875,16.1625 C41.53875,17.4375 42.57375,18.46875 43.845,18.46875 L50.7675,18.46875 C52.0425,18.46875 53.0775,17.43375 53.0775,16.1625 L53.0775,9.225 L53.0775,9.22875 Z M53.0775,25.39125 L47.85,25.39125 C48.23625,26.86125 48.46125,28.40625 48.46125,30.00375 C48.46125,40.20375 40.19625,48.465 30,48.465 C19.8,48.465 11.53875,40.2 11.53875,30.00375 C11.53875,28.40625 11.76375,26.86125 12.14625,25.39125 L6.91875,25.39125 L6.91875,50.77125 C6.91875,52.04625 7.95,53.0775 9.22875,53.0775 L50.76375,53.0775 C52.03875,53.0775 53.07375,52.04625 53.07375,50.77125 L53.07375,25.38375 L53.0775,25.39125 Z" id="Shape" sketch:type="MSShapeGroup"></path>
            </g>
        </g>
    </g>
</svg>