<?xml version="1.0" encoding="utf-8"?>
<!-- Generator: Adobe Illustrator 19.1.0, SVG Export Plug-In . SVG Version: 6.00 Build 0)  -->
<svg version="1.1" id="Layer_1" xmlns="http://www.w3.org/2000/svg" xmlns:xlink="http://www.w3.org/1999/xlink" x="0px" y="0px"
	 viewBox="0 0 1024 1024" style="enable-background:new 0 0 1024 1024;" xml:space="preserve">
<style type="text/css">
	.st0{fill:#FFFFFF;}
	.st1{fill:#00ADEE;}
	.st2{fill:#231F20;}
	.st3{opacity:0.12;}
	.st4{opacity:0.7;}
	.st5{opacity:9.000000e-02;}
	.st6{fill:#00B26D;}
</style>
<path class="st0" d="M498.5,975.2c-93.8,0-177.5-18.9-232.9-31.3c-16.8-3.8-31.2-7-41.3-8.7c-5.5-0.9-10.9-2.2-16-3.9
	c-13.3,6.5-26.4,9.7-39.2,9.7c-16.4,0-31.9-5.4-44.7-15.6c-41.6-33.2-29.3-100.8-25.3-123.1c6.9-38.4,20.7-80.9,31.4-111
	c2.6-19.9,6.1-40.7,10.5-63.2c-1.7-3.5-3-7.1-4-10.7l-0.5-2l-0.8-5.7l0-2.1c-0.1-10.9,1.1-38.3,13.7-57.6c5.3-8,12.4-14,20.8-17.5
	c4.7-5.5,10.2-10.2,16.6-14c0.6-0.4,1.2-0.7,1.8-1c4.9-9.1,10.4-17.1,13-20.9c8.8-12.5,19.3-25.2,33.1-32.1
	c-5.9-15-22.2-30.6-35.9-43.7c-2.4-2.3-4.8-4.6-7-6.7c-15.4-12.2-19.9-30.1-21.1-37.5l-0.8-4.8l0.2-4.8
	c3.6-69,19.7-167.5,75.9-245.8c35.9-50,83-82.1,119.8-82.1c0,0,0,0,0,0c6.2,0,12.2,0.7,17.9,2.5c77.7,25.1,162.6,85.2,246.9,174.6
	c16.2-6.1,33.5-9.3,51-9.3c80,0,145.1,65.1,145.1,145.1c0,31.3-9.7,60.8-27.6,85.3c0,0.1,0.1,0.2,0.1,0.2c1.9,0.5,3.7,1.2,5.6,1.9
	c25.3,10.6,34.3,38.2,37.7,48.7c1.8,5.6,3.5,14.6,1,25.3c44.1,81.3,75,157.8,87.5,216.9l4.1,19.4l-11.6,16.2
	c-10.6,14.6-21.7,28.4-33.1,41.4c-0.5,56.1-12.1,96.3-34.5,119.5c-14.1,14.6-32.7,22.7-52.1,22.7c-21.8,0-41.9-9.1-61.1-27.6
	C671.4,957.3,589.4,975.2,498.5,975.2z"/>
<g>
	<path class="st1" d="M195.2,651.1c0,0-87.6,202.7-41.9,239.2c45.7,36.5,144.7-108.8,156.2-167.2"/>
	<path class="st2" d="M170,902.3c-9.3,0-16.1-3.5-20.6-7.1c-48-38.3,31-225.3,40.1-246.5l11.4,4.9c-0.2,0.5-22,51.1-37.9,105.3
		c-20.1,68.6-22.2,113.6-5.9,126.6c6.4,5.1,14.4,5.8,24.4,2.1c46.7-17.1,112.8-120.1,121.8-165.7l12.2,2.4
		c-9.7,49.2-78.8,156.3-129.7,175C179.9,901.4,174.6,902.3,170,902.3z"/>
</g>
<g class="st3">
	<path class="st2" d="M195.2,651.1c0,0-87.6,202.7-41.9,239.2c45.7,36.5,144.7-108.8,156.2-167.2"/>
</g>
<g>
	<path class="st2" d="M221.5,379.6c23.4,23.2,63.2,54.9,61,99.1s-71.9,78.4-71.9,78.4s85.2,112.5,239.2,112.5
		s249.8-167.3,197.5-247.6C595,341.6,525,251.7,480.7,236.2c-44.2-15.5-120.9-24.3-157-3.7S221.5,379.6,221.5,379.6z"/>
</g>
<g>
	<path class="st0" d="M273.7,319c0,0,7.4,83.5,0,88.4c-7.4,4.9-49.6-37.3-49.6-39.8C224,365.2,244.2,330.8,273.7,319z"/>
</g>
<g>
	<path class="st0" d="M281.5,311.2c0,0,21.1,76.2,35.9,77.1c14.7,1,35.9-104.2,37.8-113C357.2,266.4,291.8,282.2,281.5,311.2z"/>
</g>
<g>
	<path class="st0" d="M361.1,274.8c0,0,9.8,105.6,38.8,117.9c29,12.3,55.5-110.5,56-114.5C456.4,274.3,380.3,260.6,361.1,274.8z"/>
</g>
<g>
	<path class="st0" d="M461.8,301.8c-6,0.4,2.5,80.1,13.3,95.3c10.8,15.2,45.7-58.5,46.7-66.1C522.7,323.4,478.5,300.8,461.8,301.8z"
		/>
</g>
<g>
	<path class="st0" d="M532.1,348.5c-4.9,2.5-14.2,63.4-4.9,71.7s34.9-26,39.3-35.9c4.4-9.8-27-41.8-29-42.7
		C535.5,340.6,532.1,348.5,532.1,348.5z"/>
</g>
<g>
	<path class="st0" d="M281.5,563.7c10.2-5.9-15.7-52.6-22.6-59c-6.9-6.4-38.8,43.8-34.9,48.4S262.9,574.5,281.5,563.7z"/>
</g>
<g>
	<path class="st0" d="M295.8,572.5c0,0,26-63.9,39.3-63.4s29.5,70.7,26,76.6S297.2,581.9,295.8,572.5z"/>
</g>
<g>
	<path class="st0" d="M369.5,574.5c0,0,18.2-61.4,32.4-61.4s29.5,70.3,29.5,70.3S373.9,593.2,369.5,574.5z"/>
</g>
<g class="st3">
	<path class="st2" d="M156.9,747.7c0,0-9.2,86.2,3.7,111.6s29.5,39.4,29.5,39.4l25.1-10.3l-20.7-47.9l-15.1-89.2L156.9,747.7z"/>
</g>
<g>
	<path class="st0" d="M440.2,574c0,0,7.9-49.1,22.1-50.1c14.2-1,36.8,48.1,40.3,52.6c3.4,4.4-27,13.8-27,13.8l-29.5-4.3L440.2,574z"
		/>
</g>
<g>
	<path class="st0" d="M509,571.1c-2.4-2.6,0.5-27.4,8.4-35.3c7.9-7.9,28.5,27,30.5,35.3S516.9,579.4,509,571.1z"/>
</g>
<g>
	<path class="st1" d="M887.8,739.6c-40-189.4-290.6-582.2-516.8-655.4c-25.1-7.9-143.7,62.9-155.2,285c0,0,3.9,23.6,20.6,2
		s59.9-93.3,142.5-93.3s183.7,65.8,203.4,199.5c19.7,133.6-232.9,108.1-300.7,86.5s-79.6-7.9-83.5,16.7
		c-3.9,24.6-77.5,292.1,34.4,310.5C329.7,906.9,676.5,1029.9,887.8,739.6z"/>
	<path class="st2" d="M499.9,936.5c-90.1,0-172-18.5-224.9-30.4c-17.3-3.9-32.3-7.3-43.5-9.1c-18.9-3.1-34.1-13-45.1-29.3
		c-44.2-65.5-9.1-222.1,2.5-273.6c1.5-6.9,2.8-12.4,3.2-14.7c1.5-9.4,4.6-21,15.1-27.5c13.7-8.4,37.3-6.6,76.4,5.8
		c50.3,16,209.8,35.3,270.7-16.4c18.7-15.9,25.8-36.6,21.9-63.3C557.3,350.6,462.6,284,378.8,284c-71.3,0-112.1,56.1-131.8,83.1
		c-2.2,3-4.1,5.7-5.8,7.8c-2.6,3.4-10.5,13.6-20,11.2c-9-2.2-11.3-13.7-11.7-15.9l-0.1-0.7l0-0.7c9.7-186.1,92.7-257.8,117.9-275.3
		c18.3-12.7,35.3-18.4,45.4-15.2C511.6,123.2,640,277,704.2,364.6c94.5,129.1,169,275.8,189.7,373.6l0.6,2.7l-1.6,2.2
		c-81.3,111.7-192.4,175.7-330.2,190.1C541.4,935.6,520.4,936.5,499.9,936.5z M229.1,559.1c-6.8,0-11.9,1.1-15.6,3.4
		c-5,3.1-7.7,8.6-9.4,18.9c-0.4,2.8-1.6,7.8-3.3,15.5c-11.3,50.2-45.5,202.8-4.3,263.9c9.2,13.6,21.2,21.4,36.9,24
		c11.6,1.9,26.7,5.3,44.2,9.3c64.2,14.5,171.7,38.7,283.6,27c133.3-14,240.9-75.5,319.9-182.8c-21.1-96.3-94.3-239.6-187-366.2
		C630.9,285.5,504.4,133.9,369,90.1c-4.1-1.3-16.8,1.2-34.5,13.6c-24,16.7-103,85.1-112.6,265c0.5,2.3,1.7,4.8,2.5,5.4
		c0-0.1,2.4-0.8,7-6.8c1.6-2.1,3.5-4.6,5.6-7.5c20.8-28.6,64.2-88.2,141.8-88.2c89.2,0,189.8,70.3,209.5,204.8
		c4.5,30.9-4.3,55.9-26.2,74.5c-65.5,55.6-228.6,35.9-282.5,18.8C257.7,562.6,241,559.1,229.1,559.1z"/>
</g>
<g class="st4">
	<g>
		<path class="st0" d="M232.4,890.9c56.7,9.3,198.3,55,348.4,33.9c-15.1-98.3-46.4-297.5-57.6-334.6c-1.5-5.1-3.6-12.8-6.1-22.4
			c-75,24.9-192.6,9.6-235.6-4.2c-20-6.4-35.1-9.7-46.6-10.5c-7.7,119.9-15,251.3-19.7,332.3C220.4,888,226.1,889.9,232.4,890.9z"/>
	</g>
</g>
<g>
	
		<ellipse transform="matrix(0.9096 -0.4154 0.4154 0.9096 -42.4637 192.2725)" class="st2" cx="420.7" cy="193.7" rx="10.3" ry="18.7"/>
</g>
<g class="st3">
	
		<ellipse transform="matrix(0.9096 -0.4154 0.4154 0.9096 -43.4579 192.2431)" class="st2" cx="420.1" cy="196" rx="13.5" ry="24.4"/>
</g>
<g>
	
		<ellipse transform="matrix(0.876 0.4823 -0.4823 0.876 139.388 -115.4636)" class="st2" cx="294.3" cy="213.4" rx="10.3" ry="18.7"/>
</g>
<g class="st3">
	
		<ellipse transform="matrix(0.876 0.4823 -0.4823 0.876 140.8095 -115.0981)" class="st2" cx="294.3" cy="216.3" rx="13" ry="23.6"/>
</g>
<g>
	<path class="st2" d="M366.8,83.6c1.6,0,3.1,0.2,4.3,0.6c84.3,27.3,172,99,250.9,187.9c16.8-12.8,37.8-20.4,60.6-20.4
		c55.3,0,100.2,44.9,100.2,100.2c0,32.5-15.5,61.4-39.5,79.7C817,544.4,871.1,659.9,887.9,739.6c-13.4,18.4-27.4,35.2-41.8,50.4
		c1.9,58.2-8.6,114.2-41.5,114.2c-0.1,0-0.2,0-0.2,0c-17.2-0.1-34.3-16.6-49.9-39.8c-82.9,50.4-172.7,65.9-255.1,65.9
		c-117.8,0-220.6-31.8-266.9-39.4c-10.1-1.7-18.7-5.4-25.9-10.7c-12.9,9.9-25.5,15.9-36.6,15.9c-6.1,0-11.7-1.8-16.7-5.8
		c-31-24.7-0.7-125.8,22-188.4c7.4-59,21.1-111.4,22.7-121.6c1.6-10.3,4.7-18.6,12.6-23.3l0,0c0.8-0.5,1.6-0.9,2.5-1.3
		c2.4-1.3,6.2-3.4,11-6.3c3.3-11.8,25.4-45.3,33.3-45.3c0.6,0,1.1,0.2,1.5,0.6c1.6,1.5,4.3,5.2,7.3,10.1c9-10.7,15.6-23,16.3-36.1
		c2.2-44.2-37.6-75.9-61-99.1c-4.5-2.3-5.9-10.5-5.9-10.5C226.8,157.9,334.7,83.6,366.8,83.6 M366.8,71.8L366.8,71.8
		c-21.1,0-59.1,21.4-92.9,68.5C222.2,212,207.4,304,204.1,368.5l-0.1,1.3l0.2,1.3c0.5,3,2.7,12.7,10.1,17.8c2.6,2.6,5.4,5.2,8.3,8
		c22.3,21.3,50,47.7,48.3,81.3c-0.3,5.4-2,11.1-5.1,16.9c-2.4-1.7-5.2-2.6-8.2-2.6c-5.8,0-13.6,2.8-28,23.2
		c-5.1,7.3-11.5,17.6-15,25.9c-2.7,1.6-5,2.8-6.6,3.7c-1.2,0.5-2.3,1.1-3.4,1.8c-12.8,7.7-16.5,20.9-18.2,31.6
		c-0.4,2.2-1.6,7.6-3.1,14.4c-4.9,21.8-13.9,62.1-19.5,106.3c-10.6,29.3-24.4,71.6-31.2,109.1c-8.6,47.4-4.2,77.3,13.4,91.3
		c7,5.6,15,8.4,24,8.4c11.2,0,23.6-4.5,37-13.5c7.2,4,15.1,6.7,23.6,8.1c11.1,1.8,25.9,5.2,43.2,9.1c54,12.2,135.5,30.5,225.7,30.5
		c95.2,0,179.8-20.9,251.7-62.1c18,24,35.4,35.7,53.1,35.9l0.3,0c10.7,0,20.5-4.3,28.3-12.4c23-23.8,25.8-76.6,25.1-109
		c13.8-14.9,27.1-31,39.4-48l3.1-4.2l-1.1-5.1c-16.8-79.7-69.2-192.4-140.7-303.1c22.9-21.2,35.8-50.5,35.8-82
		c0-61.8-50.2-112-112-112c-21,0-41.1,5.7-58.7,16.6C537.9,161.3,451.9,97.9,374.7,73C372.2,72.2,369.6,71.8,366.8,71.8L366.8,71.8
		L366.8,71.8z"/>
</g>
<g>
	<path class="st2" d="M499.9,936.5c-90.1,0-172-18.5-224.9-30.4c-17.3-3.9-32.3-7.3-43.5-9.1c-18.9-3.1-34.1-13-45.1-29.3
		c-44.2-65.5-9.1-222.1,2.5-273.6c1.5-6.9,2.8-12.4,3.2-14.7c1.5-9.4,4.6-21,15.1-27.5c13.7-8.4,37.3-6.6,76.4,5.8
		c50.3,16,209.8,35.3,270.7-16.4c18.7-15.9,25.8-36.6,21.9-63.3C557.3,350.6,462.6,284,378.8,284c-71.3,0-112.1,56.1-131.8,83.1
		c-2.2,3-4.1,5.7-5.8,7.8c-2.6,3.4-10.5,13.6-20,11.2c-9-2.2-11.3-13.7-11.7-15.9l-0.1-0.7l0-0.7c9.7-186.1,92.7-257.8,117.9-275.3
		c18.3-12.7,35.3-18.4,45.4-15.2C511.6,123.2,640,277,704.2,364.6c94.5,129.1,169,275.8,189.7,373.6l0.6,2.7l-1.6,2.2
		c-81.3,111.7-192.4,175.7-330.2,190.1C541.4,935.6,520.4,936.5,499.9,936.5z M229.1,559.1c-6.8,0-11.9,1.1-15.6,3.4
		c-5,3.1-7.7,8.6-9.4,18.9c-0.4,2.8-1.6,7.8-3.3,15.5c-11.3,50.2-45.5,202.8-4.3,263.9c9.2,13.6,21.2,21.4,36.9,24
		c11.6,1.9,26.7,5.3,44.2,9.3c64.2,14.5,171.7,38.7,283.6,27c133.3-14,240.9-75.5,319.9-182.8c-21.1-96.3-94.3-239.6-187-366.2
		C630.9,285.5,504.4,133.9,369,90.1c-4.1-1.3-16.8,1.2-34.5,13.6c-24,16.7-103,85.1-112.6,265c0.5,2.3,1.7,4.8,2.5,5.4
		c0-0.1,2.4-0.8,7-6.8c1.6-2.1,3.5-4.6,5.6-7.5c20.8-28.6,64.2-88.2,141.8-88.2c89.2,0,189.8,70.3,209.5,204.8
		c4.5,30.9-4.3,55.9-26.2,74.5c-65.5,55.6-228.6,35.9-282.5,18.8C257.7,562.6,241,559.1,229.1,559.1z"/>
</g>
<g class="st3">
	<g>
		<path class="st2" d="M625.7,276.5c-32.9,18-55.3,53-55.3,93.2c0,58.6,47.5,106.1,106.1,106.1c29.3,0,55.8-11.9,75-31
			C714.2,386.5,671.5,328.6,625.7,276.5z"/>
	</g>
</g>
<g>
	<g class="st3">
		<path class="st2" d="M236.3,371.1c3.5-4.5,8.1-11.2,14.1-19c-1.7-3.1-2.3-6.6-2.3-6.6c7.1-136.9,55-216.3,96.5-255.2
			c-43.9,22.4-119.8,103.4-128.9,278.8C215.7,369.1,219.6,392.7,236.3,371.1z"/>
	</g>
	<g class="st3">
		<path class="st2" d="M799.6,832.8c-15.3,10.1-30.9,18.9-46.7,26.6c-13.8-29.4-57-122-61.1-134.1c-4.9-14.4-12.7-1.2-17.1,19.5
			c-3.4,15.8,8.4,100.9,14.2,139.9c-176,54-357.8-6.4-424-17.3c-111.9-18.4-38.3-285.9-34.4-310.5c0.2-1.3,0.4-2.6,0.7-3.8
			c-24.3-0.7-30.5,10.9-33.1,27.4c-3.9,24.6-77.5,292.1,34.4,310.5c70.5,11.6,272.1,79.3,458.1,5.2c0.8,5.1,1.2,8,1.2,8l65.3-35.9
			c0,0-0.7-1.6-2-4.4C770.1,854.7,785,844.4,799.6,832.8z"/>
	</g>
</g>
<g>
	<path class="st1" d="M688.1,711.4c0,0,59.1,194.3,119.1,194.8c60.1,0.5,48-179.7,20.2-234.2"/>
	<path class="st2" d="M807.5,912.5c-0.1,0-0.2,0-0.3,0c-27.5-0.2-57-34.3-87.7-101.2c-22.2-48.5-37.2-97.5-37.3-98l11.9-3.6
		c16.1,52.8,67.7,190.1,113.2,190.4c0.1,0,0.1,0,0.2,0c8.4,0,15.3-4.5,21-13.8c26.9-43.5,15.1-168.8-6.6-211.4l11.1-5.6
		c23.4,45.9,35.4,176.2,6.1,223.5C829,909,816.4,912.5,807.5,912.5z"/>
</g>
<g class="st3">
	<path class="st2" d="M357.8,289.3c0,0-43.7,16.2-53.1,24c-9.3,7.7-6.7,16.8-1.1,33.9c5.8,17.7,25.1,46.4,25.1,46.4l-21.6,5.6
		l-21.1-35.8l-9.9-40.7l46.8-34.6l29.4-7.8L357.8,289.3z"/>
</g>
<g class="st3">
	<path class="st2" d="M281.5,407.8c0,0-14.8-11.7-22.9-17.2c-8.1-5.5-13.6-8.5-11.1-17.3c2.6-8.8,11.4-19.5,20.6-26.9
		c9.2-7.4,11.9-11.8,11.9-11.8l-3.8-10.3L251.7,349l-21.1,31.2l4.4,12.3l24.3,21.7h20.8L281.5,407.8z"/>
</g>
<g class="st3">
	<path class="st2" d="M454.3,312.1c0,0-20.3-11.4-40.2-17.3c-19.9-5.9-39.8-6.6-41.3-1.1c-0.8,2.8,1.4,28.6,6.2,46.1
		c5.3,19.2,9.3,33.5,21.4,48.5c11.9,14.8,15.6,31.1,15.6,31.1l-15.6-9.4l-41.2-28.4l-1.5-45.1l-2.5-40.9l2.5-19.1l47,3.4l41.9,11.9
		l13.2,6L454.3,312.1z"/>
</g>
<g class="st3">
	<path class="st2" d="M518.8,359.3c0,0-28-30.6-35.7-35c-6.4-3.6-16.9-5.3-17.3,2.6c-0.2,4.4,1.1,16.3,2.9,27.1
		c2,12,7.7,54.3,11.8,53.5c4.1-0.8,4.7,0.4,4.7,0.4l-25.3-2.1l-9.2-40.9V331l8.3-30.9l19.7,5.4l21.9,18.8l16.7,15.5l6,12.5
		L518.8,359.3z"/>
</g>
<g class="st3">
	<path class="st2" d="M551.9,409.9c0,0-13.6-27-17.7-33.8c-4.1-6.9-8.4-8.3-12.5-10.2c-4.1-1.8,4-15.4,4-15.4l8.3,8.8l21.8,34.3
		l5.9,12.1L551.9,409.9z"/>
</g>
<g class="st3">
	<path class="st2" d="M288.7,553.2c-9.5-4.5-24.3-6.7-34.9-8.9s-19.7-0.7-19.6-4.8c0.1-4.1,1.9-30.3,1.9-30.3l-11.4,20.8l-12.9,18.5
		l3.4,6.3l24.7,1.3l13.9,3.4l17,5.9l13.1,2l4.2-1.6L288.7,553.2z"/>
</g>
<g class="st3">
	<path class="st2" d="M364.4,577.3v-16.1c0,0-21.4-1.5-32.4-2.6c-11.1-1.1-20.1-3.4-21-10.3s-1.5-24.5-1.5-24.5l-13.6,10.7
		l-5.4,27.8l11.4,9.6l45,4.1L364.4,577.3z"/>
</g>
<g class="st3">
	<path class="st2" d="M431.4,562.3c0,0-39.8,1.8-45.5,0c-5.7-1.8-10.4-23.9-10.8-27.8s-7.4,21.4-7.4,21.4l-3.3,18.9l33.5,8.1
		l36.9-5.6v-10.1L431.4,562.3z"/>
</g>
<g class="st3">
	<path class="st2" d="M504.4,568.3l-4.4-9.8c0,0-2.7,5.9-28.4,8.7c-25.7,2.8-28,0.6-29.3-3.8c-1.2-4.4-7.5-6.4-7.5-6.4v20.3
		l13.9,2.8l38.2-4.6L504.4,568.3z"/>
</g>
<g class="st3">
	<path class="st2" d="M545,541.3l1.4,11.6l-14.8,9.3l-27.2,6l-4.4-9.8c0,0,18.3-0.5,29.2-5.4C540.2,548.3,545,541.3,545,541.3z"/>
</g>
<g class="st5">
	<path class="st2" d="M799.6,498.2l-241,99.9l-113.5,4.4l-89.9,4.8c0,0,1.9,1.5,4.6,4.3l-37.4,1c3.6-3,6.3-4.5,6.3-4.5
		s-28.9,3.5-46.8,5s-90.4-28.2-90.4-28.2s-5.4,14-7,30.2c-1.6,16.2,11,12.9,30.7,30.5c19.7,17.6,89.3,23.3,89.3,23.3
		c-0.1-0.6-0.2-1.5-0.3-2.6c5.7,9,11.6,17.4,14.8,19.1c1.1,0.6,2.6,1,4.3,1.4L276,834.8l46.8,42.1l64.5-36.4l-25.3-149.4
		c0.9-0.2,11.7-14.5,20.1-21.6c35.7-7.4,169.7-35.6,245-64.1c87.7-33.2,162.2-73,172.5-83.6C809.9,511.1,799.6,498.2,799.6,498.2z"
		/>
</g>
<g>
	<polygon class="st6" points="350.4,661.8 369.6,832.8 312.8,867.1 276,829.5 328.6,654.5 	"/>
	<path class="st2" d="M311.8,874.9L269,831.2l55.6-184.7l31.6,10.7l20,178.8L311.8,874.9z M283,827.7l30.8,31.5l49.1-29.7
		l-18.3-163.1l-11.9-4L283,827.7z"/>
</g>
<g class="st5">
	<path class="st2" d="M353.7,693.5l-9.4-29.8l-19.4,3.5L276,829.5l36.8,37.6l8-4.8l-16.4-18.7l-6.4-26.5c0,0,8.8-56.7,22.6-88.9
		C334.4,695.8,353.7,693.5,353.7,693.5z"/>
</g>
<g class="st5">
	<path class="st2" d="M353.7,691.3l-3.3-29.5l-21.7-7.4L317.4,692C326.6,694.2,343.7,694,353.7,691.3z"/>
</g>
<g>
	<path class="st6" d="M301.5,613l76.6-2.2l15.7,25.8l-3.4,4.9l-35.3,42c-9.9,3.7-32.8,3.7-39.7,0L288.7,631L301.5,613z"/>
	<path class="st2" d="M334.1,692.5c-8.6,0-17-1.1-21.5-3.5l-1.7-0.9l-29.4-57.7l16.7-23.5l83.3-2.4l19.7,32.3l-6.1,8.7l-36.3,43.3
		l-1.5,0.6C351.9,691.4,342.9,692.5,334.1,692.5z M320,678.7c6.4,1.9,22.9,2,31.6-0.5l34.9-41.8l-11.7-19.3l-70,2l-8.8,12.4
		L320,678.7z"/>
</g>
<g class="st5">
	<path class="st2" d="M334.4,613l0.3-1l-33.2,1L288.7,631l26.8,52.6c3.9,2.1,12.8,3,21.6,2.7l-7.4-15c0,0-7.1-20.1-10.3-31
		C316.2,629.5,334.4,613,334.4,613z"/>
</g>
<g>
	<path class="st0" d="M355.3,607.5c19.9,1.2,35.7,30.9,31.3,52c-0.6,2.8,147.8-30.9,249.4-65.8c91.5-31.4,176.3-74.3,170.1-93.4
		c-3.8-11.6-11.2-31-25.4-23.8c-8,4-153.6,82.2-266.5,107C422.1,603.6,355.3,607.5,355.3,607.5z"/>
	<path class="st2" d="M387,665.5c-3,0-3.7-0.6-4.5-1.3l-2.7-2.4l0.7-3.6c2.1-10.2-1.6-24.1-9.1-33.9c-5-6.5-10.8-10.3-16.5-10.6
		l0-12.4c0.7,0,67.5-4.1,157.9-23.9c94.5-20.7,214.4-80.1,261.6-104.7c1.7-0.9,2.8-1.5,3.4-1.8c6.5-3.3,11.8-2.3,15.1-0.9
		c10,4.2,15.4,17.3,19,28.3c2.6,8.1,0.1,22-51.4,49.5c-32,17.1-76.6,35.9-122.6,51.7c-58,19.9-126.4,37.8-162,46.8
		C413.8,661.9,394.1,665.5,387,665.5z M377,611.9c1.5,1.5,2.9,3.1,4.3,4.9c7.9,10.4,12.4,23.7,12.2,35.7
		c30.3-5.4,153-34.7,240.4-64.7c45.4-15.6,89.4-34.1,120.8-50.9c46.2-24.7,45.4-34.6,45.4-34.7c-3.9-12.1-7.9-19.1-11.9-20.7
		c-0.9-0.4-2.3-0.7-4.8,0.5c-0.5,0.3-1.6,0.8-3.2,1.7c-47.6,24.8-168.7,84.8-264.7,105.8C454.5,602.9,404,609.2,377,611.9z"/>
</g>
<g>
	<path class="st0" d="M327.4,608c0,0-40.6,18-35.4,49.7c0,0-106.5-14.7-116.1-50.5c0,0-0.2-24.3,7.3-35.7
		c7.5-11.4,28.5,10.4,62,20.6C270.9,600,327.4,608,327.4,608z"/>
	<path class="st2" d="M299.5,665.1l-8.3-1.2c-11.3-1.6-110.9-16.4-121.2-55l-0.2-1.6c0-2.7,0-26.6,8.3-39.2
		c7.5-11.5,21-4.3,35.3,3.2c9.2,4.8,20.6,10.9,33.8,14.9c24.9,7.6,80.7,15.6,81.2,15.7l21.4,3l-19.8,8.8
		c-0.6,0.3-36.1,16.6-31.8,43.1L299.5,665.1z M182.2,606.4c6.9,21.4,63.8,37.7,103.2,44.1c0.7-17.8,13.3-30.9,24.1-38.9
		c-18.9-3-48.9-8.2-66.1-13.5c-14.3-4.4-26.3-10.7-35.9-15.8c-6.6-3.5-16.7-8.8-18.8-7.7c0,0-0.1,0.1-0.3,0.4
		C183.4,582.7,182.2,599.5,182.2,606.4z"/>
</g>
<g class="st5">
	<path class="st2" d="M785.6,475c0.7,0.9,16.8,21.9-14.4,42.1c-31.9,20.6-158.2,71.7-239.8,90.4c-81.6,18.7-145.5,33.4-145.5,33.4
		l0,0.1c1.5,6.3,1.9,12.8,0.7,18.5c-0.6,2.8,147.8-30.9,249.4-65.8c91.5-31.4,176.3-74.3,170.1-93.4c-2.9-8.8-7.9-22.2-16.4-24.8
		l-3.7-0.5C785.8,475,785.7,474.9,785.6,475z"/>
</g>
<g class="st5">
	<path class="st2" d="M223.7,629.5c-17.4-9.5-34.7-23.5-46.9-35.3c-0.8,7.3-0.8,13.1-0.8,13.1C185.6,643,292,657.8,292,657.8
		c-0.8-4.6-0.5-8.9,0.4-13C276.5,644.4,246.3,641.9,223.7,629.5z"/>
</g>
</svg>
