<?xml version="1.0" encoding="UTF-8" standalone="no"?>
<svg width="69px" height="56px" viewBox="0 0 69 56" version="1.1" xmlns="http://www.w3.org/2000/svg" xmlns:xlink="http://www.w3.org/1999/xlink" xmlns:sketch="http://www.bohemiancoding.com/sketch/ns">
    <!-- Generator: Sketch 3.4.2 (15857) - http://www.bohemiancoding.com/sketch -->
    <title>twitter-logo</title>
    <desc>Created with Sketch.</desc>
    <defs></defs>
    <g id="Page-1" stroke="none" stroke-width="1" fill="none" fill-rule="evenodd" sketch:type="MSPage">
        <g id="Desktop-HD" sketch:type="MSArtboardGroup" transform="translate(-759.000000, -484.000000)" fill="#FFFFFF">
            <g id="twitter-logo" sketch:type="MSLayerGroup" transform="translate(759.000000, 482.000000)">
                <path d="M68.5714286,8.73428571 C66.0428571,9.84857143 63.3428571,10.6071429 60.4928571,10.95 C63.3942857,9.20571429 65.6271429,6.45 66.6771429,3.16714286 C63.96,4.77428571 60.9471429,5.94428571 57.7414286,6.57428571 C55.1785714,3.84 51.5271429,2.13428571 47.4728571,2.13428571 C39.7071429,2.13428571 33.4071429,8.42571429 33.4071429,16.1914286 C33.4071429,17.2971429 33.5357143,18.3771429 33.7714286,19.4057143 C22.08,18.8142857 11.7128571,13.2171429 4.77428571,4.71428571 C3.55714286,6.78428571 2.87142857,9.20142857 2.87142857,11.7857143 C2.87142857,16.6714286 5.35714286,20.97 9.12857143,23.4942857 C6.82285714,23.4214286 4.65,22.7871429 2.75571429,21.7371429 L2.75571429,21.9085714 C2.75571429,28.7228571 7.59857143,34.4142857 14.04,35.7085714 C12.8571429,36.0257143 11.6142857,36.1971429 10.3328571,36.1971429 C9.43285714,36.1971429 8.55,36.1114286 7.68857143,35.9485714 C9.48,41.5371429 14.6742857,45.6042857 20.8328571,45.72 C16.0157143,49.4914286 9.94714286,51.7371429 3.36,51.7371429 C2.22428571,51.7371429 1.10571429,51.6728571 0.00428571429,51.5442857 C6.23142857,55.53 13.6242857,57.8614286 21.57,57.8614286 C47.4471429,57.8614286 61.5985714,36.4328571 61.5985714,17.8414286 C61.5985714,17.2285714 61.5814286,16.6242857 61.5557143,16.02 C64.2985714,14.0357143 66.69,11.5628571 68.5757143,8.73428571 L68.5714286,8.73428571 Z" id="Shape" sketch:type="MSShapeGroup"></path>
            </g>
        </g>
    </g>
</svg>